<svg width="252" height="252" viewBox="0 0 252 252" fill="none" xmlns="http://www.w3.org/2000/svg">
<path d="M88.001 93.363V17.3469C88.001 9.9756 93.9766 4 101.348 4H234.653C242.024 4 248 9.9756 248 17.3469V150.653C248 158.024 242.024 164 234.653 164H157.944" stroke="url(#paint0_linear_63_533)" stroke-width="6.44156"/>
<rect x="3.22078" y="-3.22078" width="153.557" height="153.558" rx="10.1261" transform="matrix(1 0 0 -1 0 245.558)" stroke="url(#paint1_linear_63_533)" stroke-width="6.44156"/>
<path d="M103.053 94.685C103.385 94.685 103.551 94.9238 103.551 95.4012C103.551 95.8654 103.464 96.25 103.292 96.5551C103.12 96.8601 102.921 97.1386 102.695 97.3906C102.47 97.6426 102.185 97.8813 101.84 98.1068C101.031 98.6373 100.175 98.9026 99.2734 98.9026C98.3848 98.9026 97.6752 98.7965 97.1447 98.5842C96.6275 98.3588 96.1765 98.0272 95.7919 97.5896C94.9696 96.6744 94.5585 95.4078 94.5585 93.7898C94.5585 92.0657 94.89 89.9635 95.5532 87.4834C96.2163 84.99 96.8529 82.8614 97.463 81.0974C98.0863 79.3203 98.723 77.6293 99.3728 76.0245L101.163 71.4688C99.2004 73.2327 96.7137 76.9396 93.703 82.5895L88.8887 91.7009C86.3157 96.502 84.4789 98.9026 83.3781 98.9026C82.3038 98.9026 81.5677 98.4384 81.1698 97.51C80.8117 96.6214 80.6327 95.1161 80.6327 92.994C80.6327 90.8588 80.7985 88.8163 81.1301 86.8667C81.4749 84.9038 81.9059 82.9874 82.4232 81.1173C83.325 77.8149 84.4921 74.5391 85.9245 71.2897C84.5319 72.0722 82.9868 73.8163 81.2892 76.5218C79.9895 78.6836 79.0743 80.2619 78.5438 81.2566L73.4112 90.7062C71.2759 94.5922 69.5584 96.9927 68.2587 97.9079C67.317 98.571 66.3024 98.9026 65.2149 98.9026C64.2865 98.9026 63.6167 98.6108 63.2056 98.0272C63.0464 97.7885 62.9669 97.5697 62.9669 97.3707C62.9669 97.1718 63.0265 97.0524 63.1459 97.0126C63.9682 96.7872 64.5517 96.5551 64.8966 96.3163C65.2281 96.0643 65.5597 95.8124 65.8913 95.5604C66.2228 95.2951 66.7069 94.7447 67.3435 93.9092C67.9801 93.0604 68.6698 92.0458 69.4125 90.8654C70.1552 89.6717 70.9311 88.3389 71.7401 86.8667L74.2666 82.2115C76.6009 77.7022 79.0412 74.0881 81.5876 71.3693C82.4895 70.4011 83.3781 69.6518 84.2534 69.1213C85.1287 68.4979 86.1433 68.0802 87.2972 67.868C87.6155 67.8016 87.9073 67.7685 88.1725 67.7685C88.451 67.7685 88.7561 67.8083 89.0876 67.8879C89.4325 67.9674 89.7309 68.0934 89.9829 68.2658C90.5664 68.6637 90.7388 69.1942 90.5001 69.8574C90.394 70.2552 90.1884 70.8521 89.8834 71.6478L88.8091 74.4926C86.3025 81.4158 84.9298 87.7155 84.6911 93.3919C85.394 92.185 86.1035 90.8654 86.8197 89.433L89.0677 84.9967L91.4351 80.4807C95.0824 73.7168 98.471 69.8441 101.601 68.8627C102.251 68.6505 102.795 68.5444 103.232 68.5444C103.67 68.5444 104.015 68.604 104.267 68.7234C104.519 68.8295 104.744 68.9688 104.943 69.1412C105.407 69.5656 105.566 70.0032 105.421 70.4542C105.275 70.8918 105.082 71.4555 104.844 72.1452L101.959 80.5603L100.925 83.8627C99.784 87.6824 99.1076 90.6134 98.8954 92.6558C98.8158 93.5179 98.9086 94.1943 99.1739 94.685C99.4524 95.1625 99.8304 95.4012 100.308 95.4012C100.785 95.4012 101.157 95.3681 101.422 95.3017C101.7 95.2222 101.939 95.136 102.138 95.0431L102.655 94.8044C102.801 94.7248 102.934 94.685 103.053 94.685ZM110.394 93.4715C110.394 94.7315 110.872 95.3614 111.826 95.3614C113.577 95.3614 115.852 93.1665 118.65 88.7765C119.486 87.4768 120.321 86.1041 121.157 84.6585L123.584 80.2022C127.059 73.4781 129.061 69.6452 129.592 68.7035C129.857 68.226 130.235 67.9873 130.726 67.9873C131.216 67.9873 131.628 68.0603 131.959 68.2062C132.291 68.3388 132.576 68.5178 132.815 68.7433C133.372 69.2738 133.511 69.8043 133.232 70.3348C132.304 72.059 131.442 73.9887 130.646 76.124L125.673 89.9901C125.142 91.3959 124.592 92.7553 124.021 94.0683C123.451 95.3681 122.808 96.6612 122.092 97.9476C121.389 99.2341 120.633 100.461 119.824 101.628C119.015 102.795 118.166 103.876 117.277 104.871C116.389 105.879 115.48 106.754 114.552 107.497C112.576 109.062 110.686 109.844 108.882 109.844C108.537 109.844 108.199 109.765 107.868 109.606C107.536 109.446 107.337 109.221 107.271 108.929C107.204 108.637 107.251 108.438 107.41 108.332C107.569 108.226 107.781 108.12 108.047 108.014C111.707 106.648 115.162 103.001 118.411 97.0723C119.366 95.3216 120.248 93.498 121.057 91.6015C121.986 89.1479 122.582 87.5431 122.848 86.7871L120.838 89.8508C116.661 95.8853 113.113 98.9026 110.195 98.9026C108.219 98.9026 106.899 98.0405 106.236 96.3163C106.037 95.7726 105.938 95.3084 105.938 94.9238V94.1678C105.938 92.563 106.873 89.5126 108.743 85.0166L112.881 75.3879C113.677 73.4648 114.074 72.2844 114.074 71.8468C114.074 71.3958 113.995 71.0576 113.836 70.8322C113.677 70.6067 113.498 70.4276 113.299 70.295L112.761 69.8971C112.602 69.791 112.523 69.6319 112.523 69.4197C112.523 69.2075 112.629 68.9953 112.841 68.7831C113.053 68.5709 113.332 68.3852 113.677 68.226C114.366 67.921 115.043 67.7685 115.706 67.7685C116.382 67.7685 116.899 67.8414 117.258 67.9873C117.629 68.1199 117.934 68.2924 118.173 68.5046C118.637 68.9422 118.869 69.4727 118.869 70.0961C118.869 70.7062 118.75 71.429 118.511 72.2645C118.285 73.1001 117.98 74.0152 117.596 75.0099C117.224 75.9913 116.793 77.0324 116.303 78.1332L113.279 84.7778C111.356 89.0086 110.394 91.807 110.394 93.1731V93.4715Z" fill="url(#paint2_linear_63_533)"/>
<g filter="url(#filter0_i_63_533)">
<path d="M47.6045 167.21C46.2547 167.21 45.2424 167.002 44.5676 166.587C43.8927 166.172 43.4514 165.601 43.2438 164.874C43.088 164.147 43.0101 163.343 43.0101 162.46V117.529C43.0101 116.698 43.088 115.946 43.2438 115.271C43.4514 114.544 43.8927 113.973 44.5676 113.557C45.2424 113.09 46.3067 112.857 47.7602 112.857C48.8504 112.857 49.6551 112.935 50.1742 113.09C50.7453 113.194 51.1865 113.376 51.498 113.635C51.8095 113.843 52.121 114.129 52.4325 114.492L71.4328 141.046H69.6418L88.72 114.414C89.0834 113.999 89.4468 113.687 89.8102 113.48C90.1736 113.272 90.6408 113.116 91.2118 113.012C91.7829 112.909 92.5356 112.857 93.4701 112.857C94.8718 112.857 95.91 113.09 96.5849 113.557C97.2598 113.973 97.6751 114.544 97.8308 115.271C98.0385 115.997 98.1423 116.802 98.1423 117.685V162.616C98.1423 163.394 98.0385 164.147 97.8308 164.874C97.6751 165.601 97.2598 166.172 96.5849 166.587C95.91 167.002 94.8458 167.21 93.3922 167.21C91.9906 167.21 90.9523 166.976 90.2774 166.509C89.6025 166.094 89.1613 165.523 88.9536 164.796C88.7979 164.069 88.72 163.291 88.72 162.46V129.054L74.5476 149.534C74.3919 149.741 74.1583 150.027 73.8468 150.39C73.5353 150.702 73.12 150.987 72.6009 151.247C72.0817 151.506 71.3809 151.636 70.4984 151.636C69.6677 151.636 68.9929 151.506 68.4737 151.247C67.9546 150.987 67.5393 150.702 67.2278 150.39C66.9682 150.079 66.7087 149.767 66.4491 149.456L52.3546 129.054V162.616C52.3546 163.394 52.2508 164.147 52.0431 164.874C51.8874 165.601 51.4721 166.172 50.7972 166.587C50.1223 167.002 49.0581 167.21 47.6045 167.21ZM111.56 167.288C110.159 167.288 109.12 167.054 108.446 166.587C107.771 166.172 107.355 165.627 107.2 164.952C107.044 164.225 106.966 163.42 106.966 162.538V133.57C106.966 132.74 107.044 131.987 107.2 131.312C107.407 130.585 107.823 130.014 108.446 129.599C109.12 129.183 110.185 128.976 111.638 128.976C113.092 128.976 114.13 129.183 114.753 129.599C115.428 130.014 115.843 130.585 115.999 131.312C116.155 132.039 116.233 132.843 116.233 133.726V162.616C116.233 163.498 116.155 164.303 115.999 165.03C115.843 165.705 115.428 166.25 114.753 166.665C114.13 167.08 113.066 167.288 111.56 167.288ZM111.56 121.422C110.055 121.422 108.939 121.215 108.212 120.799C107.537 120.332 107.096 119.709 106.888 118.931C106.732 118.152 106.654 117.295 106.654 116.361C106.654 115.374 106.732 114.518 106.888 113.791C107.096 113.064 107.563 112.493 108.29 112.078C109.017 111.611 110.133 111.377 111.638 111.377C113.196 111.377 114.312 111.611 114.987 112.078C115.661 112.545 116.103 113.168 116.31 113.947C116.518 114.674 116.622 115.53 116.622 116.517C116.622 117.399 116.518 118.23 116.31 119.008C116.103 119.787 115.661 120.384 114.987 120.799C114.312 121.215 113.17 121.422 111.56 121.422ZM129.346 167.21C127.944 167.21 126.906 166.976 126.231 166.509C125.608 166.094 125.219 165.549 125.063 164.874C124.907 164.147 124.829 163.343 124.829 162.46V133.337C124.829 132.506 124.907 131.753 125.063 131.078C125.219 130.403 125.634 129.884 126.309 129.521C126.984 129.106 128.022 128.898 129.424 128.898C130.67 128.898 131.604 129.054 132.227 129.365C132.85 129.677 133.265 130.066 133.473 130.533C133.681 131 133.784 131.468 133.784 131.935C133.836 132.402 133.888 132.765 133.94 133.025L133.629 135.517C133.94 134.686 134.459 133.882 135.186 133.103C135.913 132.324 136.795 131.623 137.834 131C138.872 130.326 139.988 129.806 141.182 129.443C142.428 129.028 143.7 128.82 144.998 128.82C147.438 128.82 149.618 129.261 151.539 130.144C153.46 131.026 155.095 132.272 156.445 133.882C157.846 135.491 158.911 137.412 159.637 139.644C160.364 141.824 160.727 144.29 160.727 147.042V162.538C160.727 163.42 160.624 164.225 160.416 164.952C160.26 165.627 159.871 166.172 159.248 166.587C158.625 167.002 157.561 167.21 156.055 167.21C154.602 167.21 153.537 166.976 152.863 166.509C152.188 166.094 151.772 165.549 151.617 164.874C151.461 164.147 151.383 163.343 151.383 162.46V146.964C151.383 145.095 151.046 143.486 150.371 142.136C149.748 140.786 148.813 139.748 147.567 139.021C146.373 138.294 144.842 137.931 142.973 137.931C141.156 137.931 139.573 138.32 138.223 139.099C136.873 139.826 135.835 140.864 135.108 142.214C134.381 143.564 134.018 145.147 134.018 146.964V162.538C134.018 163.42 133.94 164.225 133.784 164.952C133.629 165.627 133.213 166.172 132.538 166.587C131.915 167.002 130.851 167.21 129.346 167.21ZM184.834 167.21C182.446 167.21 180.188 166.717 178.059 165.731C175.931 164.744 174.062 163.394 172.452 161.681C170.843 159.916 169.571 157.866 168.637 155.53C167.702 153.142 167.235 150.598 167.235 147.898C167.235 145.303 167.702 142.863 168.637 140.578C169.571 138.242 170.843 136.218 172.452 134.505C174.114 132.74 176.009 131.364 178.137 130.377C180.265 129.391 182.498 128.898 184.834 128.898C187.326 128.898 189.558 129.391 191.531 130.377C193.503 131.364 195.165 132.74 196.514 134.505C197.916 136.218 198.98 138.242 199.707 140.578C200.434 142.863 200.823 145.329 200.875 147.976C200.875 150.624 200.512 153.116 199.785 155.452C199.11 157.736 198.072 159.761 196.67 161.526C195.32 163.291 193.633 164.692 191.609 165.731C189.636 166.717 187.378 167.21 184.834 167.21ZM186.08 158.099C187.897 158.099 189.506 157.684 190.908 156.853C192.361 155.971 193.503 154.777 194.334 153.271C195.217 151.766 195.658 150.053 195.658 148.132C195.658 146.159 195.217 144.42 194.334 142.915C193.503 141.409 192.361 140.215 190.908 139.333C189.506 138.45 187.897 138.009 186.08 138.009C184.263 138.009 182.627 138.45 181.174 139.333C179.72 140.163 178.552 141.357 177.67 142.915C176.839 144.42 176.424 146.159 176.424 148.132C176.424 150.053 176.839 151.766 177.67 153.271C178.552 154.777 179.72 155.971 181.174 156.853C182.679 157.684 184.315 158.099 186.08 158.099ZM200.486 167.21C199.032 167.21 197.968 166.976 197.293 166.509C196.618 165.99 196.177 165.185 195.969 164.095V116.127C195.969 115.245 196.021 114.466 196.125 113.791C196.281 113.064 196.67 112.493 197.293 112.078C197.968 111.611 199.006 111.377 200.408 111.377C201.913 111.377 202.978 111.585 203.601 112C204.224 112.415 204.613 112.986 204.769 113.713C204.976 114.388 205.08 115.167 205.08 116.049V162.46C205.08 163.343 205.002 164.147 204.846 164.874C204.691 165.601 204.275 166.172 203.601 166.587C202.978 167.002 201.939 167.21 200.486 167.21Z" fill="url(#paint3_linear_63_533)"/>
</g>
<defs>
<filter id="filter0_i_63_533" x="43.0098" y="111.377" width="162.07" height="58.2791" filterUnits="userSpaceOnUse" color-interpolation-filters="sRGB">
<feFlood flood-opacity="0" result="BackgroundImageFix"/>
<feBlend mode="normal" in="SourceGraphic" in2="BackgroundImageFix" result="shape"/>
<feColorMatrix in="SourceAlpha" type="matrix" values="0 0 0 0 0 0 0 0 0 0 0 0 0 0 0 0 0 0 127 0" result="hardAlpha"/>
<feOffset dy="3.55192"/>
<feGaussianBlur stdDeviation="1.18397"/>
<feComposite in2="hardAlpha" operator="arithmetic" k2="-1" k3="1"/>
<feColorMatrix type="matrix" values="0 0 0 0 1 0 0 0 0 1 0 0 0 0 1 0 0 0 0.25 0"/>
<feBlend mode="normal" in2="shape" result="effect1_innerShadow_63_533"/>
</filter>
<linearGradient id="paint0_linear_63_533" x1="-187.997" y1="258.666" x2="188.279" y2="397.38" gradientUnits="userSpaceOnUse">
<stop stop-color="#2BD5E8"/>
<stop offset="1" stop-color="#8864E8"/>
</linearGradient>
<linearGradient id="paint1_linear_63_533" x1="-49.1641" y1="320" x2="211.743" y2="257.071" gradientUnits="userSpaceOnUse">
<stop stop-color="#2BD5E8"/>
<stop offset="1" stop-color="#8864E8"/>
</linearGradient>
<linearGradient id="paint2_linear_63_533" x1="108.115" y1="65.9206" x2="121.775" y2="114.165" gradientUnits="userSpaceOnUse">
<stop stop-color="white"/>
<stop offset="1" stop-color="#4DACE9"/>
</linearGradient>
<linearGradient id="paint3_linear_63_533" x1="-3.83791" y1="214.909" x2="176.116" y2="81.4862" gradientUnits="userSpaceOnUse">
<stop stop-color="#2BD5E8"/>
<stop offset="1" stop-color="#8864E8"/>
</linearGradient>
</defs>
</svg>
