<svg width="17" height="12" viewBox="0 0 17 12" fill="none" xmlns="http://www.w3.org/2000/svg">
<path fill-rule="evenodd" clip-rule="evenodd" d="M0.539962 5.58067C0.539962 5.34609 0.633148 5.12111 0.799022 4.95524C0.964896 4.78937 1.18987 4.69618 1.42445 4.69618L13.4417 4.69618L10.2339 1.48844C10.0777 1.32077 9.99265 1.099 9.9967 0.869861C10.0007 0.640718 10.0936 0.42209 10.2556 0.260037C10.4177 0.0979834 10.6363 0.00515706 10.8654 0.00111412C11.0946 -0.00292883 11.3164 0.0821273 11.484 0.238363L16.2013 4.95563C16.3669 5.12147 16.46 5.34628 16.46 5.58067C16.46 5.81506 16.3669 6.03986 16.2013 6.20571L11.484 10.923C11.3164 11.0792 11.0946 11.1643 10.8654 11.1602C10.6363 11.1562 10.4177 11.0634 10.2556 10.9013C10.0936 10.7392 10.0007 10.5206 9.9967 10.2915C9.99265 10.0623 10.0777 9.84057 10.2339 9.6729L13.4417 6.46516L1.42445 6.46516C1.18987 6.46516 0.964896 6.37197 0.799022 6.2061C0.633148 6.04022 0.539962 5.81525 0.539962 5.58067Z" fill="white"/>
</svg>
