<svg width="23" height="16" viewBox="0 0 23 16" fill="none" xmlns="http://www.w3.org/2000/svg">
<path fill-rule="evenodd" clip-rule="evenodd" d="M22.1134 7.5807C22.1134 7.26793 21.9891 6.96796 21.768 6.7468C21.5468 6.52563 21.2468 6.40139 20.9341 6.40139L4.91108 6.40139L9.18807 2.1244C9.39639 1.90084 9.5098 1.60515 9.5044 1.29963C9.49901 0.994102 9.37525 0.702598 9.15917 0.486527C8.9431 0.270456 8.6516 0.146687 8.34608 0.141297C8.04055 0.135906 7.74486 0.249314 7.5213 0.457629L1.23161 6.74732C1.01077 6.96844 0.886719 7.26818 0.886719 7.5807C0.886719 7.89322 1.01077 8.19296 1.23161 8.41409L7.5213 14.7038C7.74486 14.9121 8.04055 15.0255 8.34608 15.0201C8.6516 15.0147 8.9431 14.8909 9.15917 14.6749C9.37525 14.4588 9.49901 14.1673 9.5044 13.8618C9.5098 13.5563 9.39639 13.2606 9.18807 13.037L4.91108 8.76002L20.9341 8.76002C21.2468 8.76002 21.5468 8.63577 21.768 8.4146C21.9891 8.19344 22.1134 7.89348 22.1134 7.5807Z" fill="white"/>
</svg>
