<svg width="5" height="17" viewBox="0 0 5 17" fill="none" xmlns="http://www.w3.org/2000/svg">
<path d="M4.54247 5.7726L0.261621 6.30911L0.108334 7.01946L0.949547 7.17462C1.49914 7.30548 1.60756 7.50363 1.48792 8.05135L0.108334 14.5343C-0.254323 16.2111 0.304617 17 1.61878 17C2.63758 17 3.82089 16.5289 4.3574 15.8821L4.5219 15.1045C4.14803 15.4335 3.60218 15.5643 3.23952 15.5643C2.72544 15.5643 2.53851 15.2035 2.67123 14.568L4.54247 5.7726ZM4.67332 1.86936C4.67332 2.36515 4.47637 2.84063 4.1258 3.1912C3.77522 3.54178 3.29974 3.73873 2.80396 3.73873C2.30817 3.73873 1.83269 3.54178 1.48212 3.1912C1.13154 2.84063 0.934593 2.36515 0.934593 1.86936C0.934593 1.37358 1.13154 0.898098 1.48212 0.547524C1.83269 0.19695 2.30817 0 2.80396 0C3.29974 0 3.77522 0.19695 4.1258 0.547524C4.47637 0.898098 4.67332 1.37358 4.67332 1.86936Z" fill="white"/>
</svg>
